# xmcd CD database file
# Copyright (C) 1996 Ti Kan
#
# Track frame offsets:
# 	202
# 	17550
# 	32882
# 	51162
# 	67870
# 	83465
# 	100510
# 	116877
# 	132365
# 	142485
#
# Disc length: 2046 seconds
#
# Revision: 1
# Processed by: cddbd v1.4b41PL1 Copyright (c) Steve Scherf et al.
# Submitted via: DiscPlay 3.4.1
#
DISCID=8407fc0a
DTITLE=Mary Coughlan - Tired and Emotional
DYEAR=1900
DGENRE=
TTITLE0=Double Cross
TTITLE1=The Beach
TTITLE2=Meet me where they play the blues
TTITLE3=Delaney's gone back on the wine
TTITLE4=Sense of silence
TTITLE5=Nobody's business
TTITLE6=Mamma just wants to barrelhouse all night long
TTITLE7=Country fair dance
TTITLE8=Lady in green
TTITLE9=Seduced
EXTD=
EXTT0=
EXTT1=
EXTT2=
EXTT3=
EXTT4=
EXTT5=
EXTT6=
EXTT7=
EXTT8=
EXTT9=
PLAYORDER=
